<?xml version="1.0" encoding="utf-8"?>
<?xml-stylesheet type="text/xsl" href="rss1.xsl"?>
<rss version="2.0" xmlns:atom="http://www.w3.org/2005/Atom" xmlns:content="http://purl.org/rss/1.0/modules/content/" xmlns:dc="http://purl.org/dc/elements/1.1/" xmlns:media="http://search.yahoo.com/mrss/">
<channel>
 <title>Getty</title>
 <link>http://www.gettyimg.com/</link>
 <atom:link href="http://www.gettyimg.com/" rel="self" type="application/rss+xml" />

 
                <item>
                <title><![CDATA[【Apple Music】WEB-RiP - Linkin Park - From the Inside [Apple Music WEB-DL 1080p HD]]]></title>
                <link><![CDATA[https://sharemania.us/threads/linkin-park-from-the-inside-apple-music-web-dl-1080p-hd.243438/]]></link>
                <description><![CDATA[<article>
<blockquote class="messageText SelectQuoteContainer ugc baseHtml">
<span style="font-size: 22px"><b>Linkin Park - From the Inside [Apple Music WEB-DL 1080p HD]</b></span><br>
<br>
<img src="https://imgur.com/OgwnwZS.jpg" class="bbCodeImage LbImage" alt="[​IMG]" data-url="https://imgur.com/OgwnwZS.jpg" style=""><br>
<br>
<div class="bbCodeBlock bbCodeCode">
<div class="type">Code:</div>
<pre>General
Format                         : MPEG-4
Codec ID                       : M4V  (isom/iso4/M4V /mp42)
File size                      : 214 MiB
Duration                       : 2 min 57 s
Overall bit rate mode          : Variable
Overall bit rate               : 10.1 Mb/s
Movie name                     : From the Inside
Performer                      : LINKIN PARK
Genre                          : Alternative
ContentType                    : Music Video
Recorded date                  : UTC 2004-01-12 08:00:00
Encoded date                   : UTC 2024-02-16 05:57:16
Tagged date                    : UTC 2024-02-16 05:57:16
Copyright                      : ℗ © 2003 Warner Records Inc.
Cover                          : Yes
Rating                         : None
GenreID                        : 1620
AlbumTitleID                   : 148662
AppleStoreCatalogID            : 1677898104

Video
ID                             : 2
Format                         : AVC
Format/Info                    : Advanced Video Codec
Format profile                 : High@L4
Format settings                : CABAC / 5 Ref Frames
Format settings, CABAC         : Yes
Format settings, Reference fra : 5 frames
Codec ID                       : avc1
Codec ID/Info                  : Advanced Video Coding
Duration                       : 2 min 57 s
Bit rate                       : 9 805 kb/s
Maximum bit rate               : 21.1 Mb/s
Width                          : 1 920 pixels
Height                         : 814 pixels
Display aspect ratio           : 2.35:1
Frame rate mode                : Constant
Frame rate                     : 25.000 FPS
Color space                    : YUV
Chroma subsampling             : 4:2:0
Bit depth                      : 8 bits
Scan type                      : Progressive
Bits/(Pixel*Frame)             : 0.251
Stream size                    : 207 MiB (97%)
Title                          : Core Media Video
Encoded date                   : UTC 2024-02-16 05:57:21
Tagged date                    : UTC 2024-04-30 10:44:58
Color range                    : Limited
Color primaries                : BT.709
Transfer characteristics       : BT.709
Matrix coefficients            : BT.709
Codec configuration box        : avcC

Audio
ID                             : 1
Format                         : AAC LC
Format/Info                    : Advanced Audio Codec Low Complexity
Codec ID                       : mp4a-40-2
Duration                       : 2 min 57 s
Duration_LastFrame             : -9 ms
Bit rate mode                  : Variable
Bit rate                       : 280 kb/s
Maximum bit rate               : 362 kb/s
Channel(s)                     : 2 channels
Channel layout                 : L R
Sampling rate                  : 48.0 kHz
Frame rate                     : 46.875 FPS (1024 SPF)
Compression mode               : Lossy
Stream size                    : 5.92 MiB (3%)
Title                          : Core Media Audio
Encoded date                   : UTC 2024-02-16 05:57:16
Tagged date                    : UTC 2024-04-30 10:44:58
</pre>
</div>
<div class="bbCodeBlock bbCodeVfcHH HiddenContent">
<div class="attribution type">Hidden Content:</div>
<blockquote>You must reply before you can see the hidden data contained here.</blockquote>
</div>
<div class="messageTextEndMarker">&nbsp;</div>
</blockquote>
</article>]]></description>
                <author><![CDATA[Ron001]]></author>
                </item>

                
                <item>
                <title><![CDATA[【Apple Music】WEB-RiP - Vanessa Hudgens - Come Back To Me (Apple Music HD)]]></title>
                <link><![CDATA[https://sharemania.us/threads/vanessa-hudgens-come-back-to-me-apple-music-hd.243436/]]></link>
                <description><![CDATA[<article>
<blockquote class="messageText SelectQuoteContainer ugc baseHtml">
<img src="https://i.postimg.cc/FKZydV08/folder.jpg" class="bbCodeImage LbImage" alt="[​IMG]" data-url="https://i.postimg.cc/FKZydV08/folder.jpg" style=""> <br>
<br>
<div class="bbCodeBlock bbCodeVfcHH HiddenContent">
<div class="attribution type">Hidden Content:</div>
<blockquote>You must reply before you can see the hidden data contained here.</blockquote>
</div>
<div class="messageTextEndMarker">&nbsp;</div>
</blockquote>
</article>]]></description>
                <author><![CDATA[soymarcelooo]]></author>
                </item>

                
                <item>
                <title><![CDATA[【Vimeo】SEVENTEEN - MAESTRO (Vimeo 1080p)]]></title>
                <link><![CDATA[https://sharemania.us/threads/seventeen-maestro-vimeo-1080p.243435/]]></link>
                <description><![CDATA[<article>
<blockquote class="messageText SelectQuoteContainer ugc baseHtml">
<img src="https://images2.imgbox.com/b3/9b/aOfMkijd_o.jpg" class="bbCodeImage LbImage" alt="[​IMG]" data-url="https://images2.imgbox.com/b3/9b/aOfMkijd_o.jpg" style=""> <br>
<br>
<span data-s9e-mediaembed="youtube" style="display:inline-block;width:100%;max-width:640px"><span style="display:block;overflow:hidden;position:relative;padding-bottom:56.25%"><iframe allowfullscreen="" loading="lazy" scrolling="no" style="background:url(https://i.ytimg.com/vi/ThI0pBAbFnk/hqdefault.jpg) 50% 50% / cover;border:0;height:100%;left:0;position:absolute;width:100%" src="https://www.youtube.com/embed/ThI0pBAbFnk"></iframe></span></span><br>
<br>
<div class="bbCodeBlock bbCodeVfcHH HiddenContent">
<div class="attribution type">Hidden Content:</div>
<blockquote>You must either reply or click 'Like' to see the hidden information contained here.</blockquote>
</div>
<div class="messageTextEndMarker">&nbsp;</div>
</blockquote>
</article>]]></description>
                <author><![CDATA[Eric Lyn]]></author>
                </item>

                
                <item>
                <title><![CDATA[【Apple Music】WEB-RiP - IVE - HEYA (Apple Music 1080p)]]></title>
                <link><![CDATA[https://sharemania.us/threads/ive-heya-apple-music-1080p.243437/]]></link>
                <description><![CDATA[<article>
<blockquote class="messageText SelectQuoteContainer ugc baseHtml">
<img src="https://images2.imgbox.com/fd/37/ULb19EWI_o.jpg" class="bbCodeImage LbImage" alt="[​IMG]" data-url="https://images2.imgbox.com/fd/37/ULb19EWI_o.jpg" style=""> <br>
<br>
<span data-s9e-mediaembed="youtube" style="display:inline-block;width:100%;max-width:640px"><span style="display:block;overflow:hidden;position:relative;padding-bottom:56.25%"><iframe allowfullscreen="" loading="lazy" scrolling="no" style="background:url(https://i.ytimg.com/vi/07EzMbVH3QE/hqdefault.jpg) 50% 50% / cover;border:0;height:100%;left:0;position:absolute;width:100%" src="https://www.youtube.com/embed/07EzMbVH3QE"></iframe></span></span><br>
<br>
<div class="bbCodeBlock bbCodeVfcHH HiddenContent">
<div class="attribution type">Hidden Content:</div>
<blockquote>You must reply before you can see the hidden data contained here.</blockquote>
</div>
<div class="messageTextEndMarker">&nbsp;</div>
</blockquote>
</article>]]></description>
                <author><![CDATA[Eric Lyn]]></author>
                </item>

                </channel></rss>